# xmcd
#
# Track frame offsets: 
#        150
#        19631
#        36959
#        55776
#        71751
#
# Disc length: 1170 seconds
#
# Revision: 0
# Processed by: cddbd v1.5.2PL0 Copyright (c) Steve Scherf et al.
# Submitted via: ExactAudioCopyFreeDBPlugin 1.0
#
DISCID=3c049005
DTITLE=Alex Hepburn - Together alone CD 2v2
DYEAR=2012
DGENRE=Blues
TTITLE0=look what you´ve done
TTITLE1=jenny
TTITLE2=fall apart
TTITLE3=crown of thorns
TTITLE4=too young to die
EXTD=
EXTT0=
EXTT1=
EXTT2=
EXTT3=
EXTT4=
PLAYORDER=
